<mxfile host="app.diagrams.net" agent="Mozilla/5.0 (Windows NT 10.0; Win64; x64) AppleWebKit/537.36 (KHTML, like Gecko) Chrome/131.0.0.0 Safari/537.36 Edg/131.0.0.0" version="25.0.3">
  <diagram name="Trang-1" id="9utKD17zZ6ew--LLGaP9">
    <mxGraphModel dx="1042" dy="565" grid="1" gridSize="10" guides="1" tooltips="1" connect="1" arrows="1" fold="1" page="1" pageScale="1" pageWidth="827" pageHeight="1169" math="0" shadow="0">
      <root>
        <mxCell id="0" />
        <mxCell id="1" parent="0" />
        <mxCell id="mb9XLehkOuM2XuH5MyY6-4" value="" style="edgeStyle=orthogonalEdgeStyle;rounded=0;orthogonalLoop=1;jettySize=auto;html=1;" edge="1" parent="1" source="mb9XLehkOuM2XuH5MyY6-1" target="mb9XLehkOuM2XuH5MyY6-3">
          <mxGeometry relative="1" as="geometry" />
        </mxCell>
        <mxCell id="mb9XLehkOuM2XuH5MyY6-1" value="Start" style="strokeWidth=2;html=1;shape=mxgraph.flowchart.start_1;whiteSpace=wrap;" vertex="1" parent="1">
          <mxGeometry x="360" y="70" width="100" height="60" as="geometry" />
        </mxCell>
        <mxCell id="mb9XLehkOuM2XuH5MyY6-2" value="End" style="strokeWidth=2;html=1;shape=mxgraph.flowchart.start_1;whiteSpace=wrap;" vertex="1" parent="1">
          <mxGeometry x="360" y="410" width="100" height="60" as="geometry" />
        </mxCell>
        <mxCell id="mb9XLehkOuM2XuH5MyY6-6" value="" style="edgeStyle=orthogonalEdgeStyle;rounded=0;orthogonalLoop=1;jettySize=auto;html=1;" edge="1" parent="1" source="mb9XLehkOuM2XuH5MyY6-3" target="mb9XLehkOuM2XuH5MyY6-5">
          <mxGeometry relative="1" as="geometry" />
        </mxCell>
        <mxCell id="mb9XLehkOuM2XuH5MyY6-3" value="Input A,B" style="whiteSpace=wrap;html=1;strokeWidth=2;" vertex="1" parent="1">
          <mxGeometry x="360" y="150" width="100" height="40" as="geometry" />
        </mxCell>
        <mxCell id="mb9XLehkOuM2XuH5MyY6-8" value="" style="edgeStyle=orthogonalEdgeStyle;rounded=0;orthogonalLoop=1;jettySize=auto;html=1;" edge="1" parent="1" source="mb9XLehkOuM2XuH5MyY6-5" target="mb9XLehkOuM2XuH5MyY6-7">
          <mxGeometry relative="1" as="geometry" />
        </mxCell>
        <mxCell id="mb9XLehkOuM2XuH5MyY6-5" value="C=A+B" style="whiteSpace=wrap;html=1;strokeWidth=2;" vertex="1" parent="1">
          <mxGeometry x="350" y="230" width="120" height="50" as="geometry" />
        </mxCell>
        <mxCell id="mb9XLehkOuM2XuH5MyY6-9" value="" style="edgeStyle=orthogonalEdgeStyle;rounded=0;orthogonalLoop=1;jettySize=auto;html=1;" edge="1" parent="1" source="mb9XLehkOuM2XuH5MyY6-7" target="mb9XLehkOuM2XuH5MyY6-2">
          <mxGeometry relative="1" as="geometry" />
        </mxCell>
        <mxCell id="mb9XLehkOuM2XuH5MyY6-7" value="Output C" style="whiteSpace=wrap;html=1;strokeWidth=2;" vertex="1" parent="1">
          <mxGeometry x="350" y="310" width="120" height="60" as="geometry" />
        </mxCell>
      </root>
    </mxGraphModel>
  </diagram>
</mxfile>
